<svg height="512pt" viewBox="0 0 512 512" width="512pt" xmlns="http://www.w3.org/2000/svg"><path d="m512 0h-256l-20.015625 255.089844 20.015625 256.910156h256zm0 0" fill="#b4d2d7"/><path d="m0 0h256v512h-256zm0 0" fill="#e1ebf0"/><path d="m448.265625 63.734375h-192.265625l-20.015625 191.355469 20.015625 193.175781h192.265625zm0 0" fill="#0051bf"/><path d="m63.734375 63.734375h192.265625v384.53125h-192.265625zm0 0" fill="#6e76e5"/><path d="m271.945312 127.46875h-15.945312l-20.015625 31.53125 20.015625 32.203125h15.945312c17.613282 0 31.945313 14.328125 31.945313 31.941406 0 17.617188-14.332031 31.945313-31.945313 31.945313h-15.945312l-20.015625 31.910156 20.015625 31.824219h15.945312c52.84375 0 95.679688-42.835938 95.679688-95.675781 0-52.84375-42.835938-95.679688-95.679688-95.679688zm0 0" fill="#e1ebf0"/><path d="m208.109375 255.089844v-63.886719h47.890625v-63.734375h-111.625v257.0625h63.785156v-65.707031h47.839844v-63.734375zm0 0" fill="#fff5f5"/></svg>